<?xml version="1.0" standalone="no"?><!DOCTYPE svg PUBLIC "-//W3C//DTD SVG 1.1//EN" "http://www.w3.org/Graphics/SVG/1.1/DTD/svg11.dtd"><svg t="1497065964680" class="icon" style="" viewBox="0 0 1024 1024" version="1.1" xmlns="http://www.w3.org/2000/svg" p-id="11187" xmlns:xlink="http://www.w3.org/1999/xlink" width="200" height="200"><defs><style type="text/css"></style></defs><path d="M800.060695 207.927633 533.279652 207.927633l29.602202-92.097558 180.895977 0c14.128789 0 25.582655-11.453866 25.582655-25.582655s-11.453866-25.582655-25.582655-25.582655l-199.544709 0c-11.112082 0-20.955264 7.1744-24.355711 17.754363l-40.3418 125.508505L223.939305 207.927633c-36.676317 0-66.514903 29.838585-66.514903 66.514903l0 78.794577c0 33.981952 25.621541 62.075801 58.557674 66.022693l31.107485 468.393853c-0.056282 39.953967 49.463552 68.611657 99.851149 68.611657l335.208505 0c49.671283 0 95.794763-28.78151 95.794763-70.296019l21.952988-413.919171c0.093121-0.883113 0.14224-1.779529 0.14224-2.687202 0-14.034645-11.377118-25.411763-25.411763-25.411763s-25.411763 11.377118-25.411763 25.411763l-22.040992 414.923034c-0.056282 8.791224-19.86749 21.153786-45.025473 21.153786L346.94071 905.439744c-13.610996 0-27.89635-3.728928-38.272675-9.734712-7.725962-4.471848-10.809183-8.492418-10.809183-9.735735l-30.91101-466.216257 533.112853 0c36.676317 0 66.514903-29.838585 66.514903-66.514903l0-78.794577C866.575598 237.766219 836.737012 207.927633 800.060695 207.927633zM815.410288 353.237113c0 8.463766-6.885827 15.349593-15.349593 15.349593l-576.12139 0c-8.463766 0-15.349593-6.885827-15.349593-15.349593l0-78.794577c0-8.463766 6.885827-15.349593 15.349593-15.349593l274.070053 0c0.060375 0 0.121773 0.007163 0.181125 0.007163 0.059352 0 0.116657-0.00614 0.176009-0.007163l301.69318 0c8.463766 0 15.349593 6.885827 15.349593 15.349593L815.409265 353.237113zM673.001881 805.196669 477.819526 638.998439c-10.758018-9.159614-26.904767-7.864108-36.063357 2.891863-9.160637 10.758018-7.865131 26.903743 2.891863 36.063357l195.182354 166.19823c4.815679 4.100388 10.708899 6.106068 16.573467 6.106068 7.236821 0 14.430664-3.055592 19.48989-8.997931C685.053358 830.502008 683.757852 814.356282 673.001881 805.196669zM673.173796 623.165846l-97.590666-84.034928c-10.707876-9.221012-26.859741-8.013511-36.078707 2.693342-9.219989 10.705829-8.013511 26.858718 2.693342 36.078707l97.590666 84.034928c4.831029 4.15974 10.769274 6.197142 16.680914 6.197142 7.189749 0 14.338566-3.013637 19.397792-8.890484C685.086104 648.538723 683.880649 632.385834 673.173796 623.165846z" p-id="11188"></path></svg>