<?xml version="1.0" standalone="no"?><!DOCTYPE svg PUBLIC "-//W3C//DTD SVG 1.1//EN" "http://www.w3.org/Graphics/SVG/1.1/DTD/svg11.dtd"><svg t="1497065844234" class="icon" style="" viewBox="0 0 1024 1024" version="1.1" xmlns="http://www.w3.org/2000/svg" p-id="8524" xmlns:xlink="http://www.w3.org/1999/xlink" width="200" height="200"><defs><style type="text/css"></style></defs><path d="M607.296 368C563.52 385.152 518.144 397.824 474.88 416.448 392.896 451.904 300.8 512 311.296 614.016c6.656 64.768 57.216 103.36 105.856 138.56-22.528-16.192-30.976-86.208-29.76-111.296C389.312 600.768 409.216 566.336 440.32 540.928c70.464-57.472 166.656-72.64 231.488-141.12C638.08 435.456 606.464 473.216 571.776 508.032 540.8 538.944 501.952 565.44 476.928 601.6c-33.856 49.088-39.744 140.032 36.8 150.912 277.44 39.68 232.064-483.328 232.064-483.328C749.248 308.736 634.112 357.376 607.296 368z" p-id="8525"></path><path d="M875.136 800.32c18.88-95.04 26.88-191.936 26.56-288.32 0.256-50.048-1.536-100.544-6.08-150.656-2.24-25.088-5.056-50.048-8.704-75.008-1.792-12.48-3.776-24.96-5.952-37.312L876.416 224c0 0-0.128 0 0.064 0l1.28-0.512 2.624-1.152c1.664-0.768 3.328-1.6 5.056-2.496 6.592-3.584 12.8-8 18.304-13.12 11.136-10.176 19.584-23.168 24.448-37.44 9.856-28.544 4.032-61.824-15.04-85.312-9.344-11.776-21.824-21.12-35.712-26.88s-29.248-8-44.224-6.528c-14.976 1.536-29.568 6.976-41.92 15.616C785.088 70.4 779.52 75.456 774.592 81.152c-2.56 2.88-4.8 5.824-6.848 8.96L767.744 90.24l-5.888-1.536c-5.376-1.472-10.944-2.88-16.384-4.16-10.944-2.624-21.952-4.864-32.96-6.976-22.016-4.096-44.032-7.232-66.176-9.728C601.984 62.912 557.44 60.16 513.024 60.544 468.544 60.096 424 62.848 379.712 67.712 357.568 70.208 335.488 73.344 313.472 77.44 302.528 79.488 291.456 81.792 280.512 84.352c-5.44 1.28-10.88 2.688-16.384 4.096L258.304 90.048 258.24 89.92C256.384 87.232 254.016 84.032 251.712 81.28 246.848 75.712 241.344 70.72 235.264 66.496c-12.032-8.576-26.24-14.016-40.96-15.808C179.712 48.896 164.544 50.752 150.72 56.128c-13.76 5.312-26.24 14.144-35.84 25.344-19.52 22.4-26.688 54.656-18.56 83.136 3.968 14.272 11.52 27.52 21.76 38.08 5.12 5.312 10.88 10.112 17.152 14.016 1.472 1.024 3.136 1.92 4.736 2.752l2.432 1.344c0.512 0.256 1.344 0.704 1.6 0.832L142.656 228.864 139.136 247.552C136.896 260.032 134.848 272.576 133.248 285.12 129.792 310.208 127.168 335.424 125.248 360.576 121.344 410.88 120.064 461.44 120.256 511.616 120.128 561.856 121.6 612.352 125.632 662.656c1.984 25.216 4.736 50.304 8.256 75.456 1.792 12.48 3.904 25.024 6.08 37.568l3.648 18.688 1.344 6.656-1.536 0.768-2.56 1.216c-1.728 0.832-3.456 1.792-4.992 2.752-6.656 3.84-12.736 8.448-18.112 13.824-10.816 10.752-18.88 24.128-23.168 38.848-8.832 29.248-1.216 62.656 19.264 85.312 10.112 11.392 23.104 20.16 37.504 25.216 14.464 4.992 30.016 6.336 45.056 3.84 15.04-2.56 29.44-9.088 41.28-18.56 5.888-4.736 11.264-10.24 15.872-16.384 1.088-1.472 2.24-3.008 3.2-4.608l1.536-2.368 1.152-1.984 0.064-0.064 4.8 1.344c5.44 1.408 10.88 2.752 16.32 4.032 10.816 2.56 21.696 4.864 32.576 6.848 21.824 4.032 43.712 7.168 65.728 9.6 43.776 4.864 87.936 7.616 132.032 7.232 44.096 0.512 88.256-2.112 132.096-6.848 22.016-2.368 43.904-5.44 65.664-9.408 10.944-1.92 21.824-4.16 32.64-6.656 5.44-1.28 10.944-2.56 16.32-4.032l5.056-1.344 0 0.128c1.6 2.624 4.032 6.336 6.272 9.152 4.672 6.144 10.112 11.52 16.128 16.192 12.032 9.408 26.56 15.68 41.664 17.92 14.976 2.304 30.656 0.768 45.056-4.48 14.336-5.376 27.264-14.336 37.184-25.984 9.92-11.52 16.832-25.664 19.968-40.64 3.008-14.976 2.304-30.656-2.304-45.312C918.912 831.232 899.392 810.368 875.136 800.32zM888.576 924.736c-13.888 16.512-36.352 24.832-57.6 21.376-10.56-1.6-20.672-6.016-29.12-12.544-4.16-3.328-8.064-7.104-11.328-11.328-1.664-2.24-2.944-4.032-4.672-6.976-3.072-5.504-5.696-12.096-8.384-17.984l-15.744 4.48-10.752 3.008c-5.12 1.28-10.368 2.56-15.552 3.776-10.368 2.368-20.864 4.48-31.36 6.464-21.12 3.84-42.432 6.784-63.808 9.216-42.88 4.544-85.952 7.168-129.152 6.72-43.008 0.384-86.208-2.368-129.088-7.104-21.312-2.368-42.624-5.504-63.744-9.344-10.56-1.984-20.992-4.096-31.36-6.656-5.184-1.216-10.304-2.496-15.488-3.904l-10.88-3.072-15.68-4.544c-2.688 5.888-5.248 12.544-8.128 17.984l-0.832 1.472-0.512 0.896L234.24 918.272c-0.704 1.152-1.472 2.24-2.304 3.328-3.2 4.288-6.912 8.064-11.072 11.456C212.544 939.712 202.56 944.256 192 945.984c-21.12 3.712-43.712-4.096-57.856-20.288-14.4-15.872-19.648-39.296-13.504-59.84 2.944-10.176 8.64-19.648 16.256-27.136 3.776-3.776 8-6.976 12.608-9.728 1.216-0.64 2.368-1.28 3.52-1.856l1.792-0.896 2.88-1.28c0.704-0.256 1.536-0.512 2.304-0.768l14.272-16.32-1.6-7.232-2.56-11.84-3.52-18.112c-2.176-12.032-4.096-24.256-5.888-36.416-3.456-24.448-6.08-49.088-8.064-73.792C148.672 611.072 147.264 561.472 147.392 511.616 147.072 461.696 148.416 412.16 152.256 362.688c1.92-24.768 4.48-49.344 7.808-73.92 1.728-12.224 3.648-24.384 5.76-36.544l3.392-18.112L171.52 222.848l4.032-18.304C169.6 202.496 163.2 200.448 157.312 197.952l-2.56-1.28L153.088 195.84C151.936 195.2 150.72 194.56 149.696 193.856 145.28 191.104 141.312 187.776 137.728 184 130.56 176.576 125.248 167.296 122.496 157.312c-5.76-19.968-0.768-42.56 12.992-58.176 13.376-15.936 34.88-24.192 55.616-21.632 10.24 1.28 20.16 5.12 28.608 11.072 4.16 2.944 8.064 6.464 11.52 10.432 1.728 2.048 3.2 3.904 4.736 6.336 3.328 5.056 6.208 11.264 9.216 16.768L261.12 117.504l10.048-2.816C276.352 113.216 281.536 111.936 286.72 110.656c10.496-2.432 20.992-4.608 31.68-6.592 21.312-3.968 42.752-7.04 64.384-9.408 43.2-4.8 86.656-7.488 130.24-7.04 43.52-0.384 86.912 2.304 130.24 7.04 21.568 2.496 43.008 5.568 64.32 9.472 10.624 1.984 21.12 4.16 31.616 6.656 5.184 1.28 10.432 2.56 15.68 3.968l10.048 2.816 15.808 4.736c3.136-5.696 6.016-12.032 9.344-17.216 1.472-2.176 3.136-4.288 4.8-6.272 3.52-4.032 7.424-7.616 11.776-10.56 8.704-6.016 18.816-9.792 29.312-10.88 21.12-2.432 42.88 6.656 56 23.424 13.44 16.384 17.408 39.808 10.56 59.776-3.392 9.92-9.344 19.008-17.152 26.176-3.904 3.584-8.192 6.656-12.864 9.152-1.216 0.64-2.304 1.28-3.584 1.792l-1.728 0.832-3.2 1.216c-6.144 2.048-12.8 3.648-19.072 5.312l6.08 30.336 3.328 18.24c2.048 12.096 4.032 24.32 5.76 36.544 3.52 24.384 6.336 48.896 8.512 73.536 4.416 49.28 6.272 98.56 5.952 148.224 0.448 98.944-8 198.016-28.16 294.528l9.856 15.872c20.8 5.12 38.4 21.76 44.672 42.24C907.52 884.992 902.72 908.672 888.576 924.736z" p-id="8526"></path></svg>