<?xml version="1.0" standalone="no"?><!DOCTYPE svg PUBLIC "-//W3C//DTD SVG 1.1//EN" "http://www.w3.org/Graphics/SVG/1.1/DTD/svg11.dtd"><svg t="1497066004720" class="icon" style="" viewBox="0 0 1024 1024" version="1.1" xmlns="http://www.w3.org/2000/svg" p-id="12431" xmlns:xlink="http://www.w3.org/1999/xlink" width="200" height="200"><defs><style type="text/css"></style></defs><path d="M856.304 522.4a28.768 28.768 0 0 0-32.4 24.672c-21.04 155.024-154.528 271.936-310.496 271.936-106.08 0-199.856-53.36-256.592-134.64 52.192-16.352 114.304-41.136 187.424-74.592a28.8 28.8 0 1 0-23.952-52.384c-83.856 38.352-146.224 61.552-192.688 75.216a313.76 313.76 0 0 1-27.584-128.512c0-173.632 140.592-314.896 313.392-314.896 66.48 0 129.984 20.64 183.648 59.664a28.8 28.8 0 1 0 33.888-46.576 367.424 367.424 0 0 0-217.52-70.672C308.832 131.6 142.4 298.688 142.4 504.096c0 50.368 10.064 98.4 28.192 142.288-58.432 10.24-72.816-2.304-75.056-4.912-11.92-13.728 5.632-58.896 22.32-84.864a28.8 28.8 0 0 0-48.4-31.248c-6.592 10.192-63.072 101.04-17.52 153.76 16.736 19.36 42.752 29.152 79.408 29.152 19.232 0 41.472-2.784 66.72-8.224 65.504 105.856 182.32 176.528 315.312 176.528 184.656 0 342.672-138.336 367.568-321.776a28.768 28.768 0 0 0-24.64-32.4z" p-id="12432"></path><path d="M967.056 312.544c-18.336-11.376-39.872-17.152-63.968-17.152-32.864 0-64.768 10.256-92.912 19.296-9.456 3.04-18.368 5.92-26.512 8.048-15.184 4-27.696 5.936-38.272 5.936-20.512 0-35.184-7.056-62.352-23.936-24.336-15.088-71.728-40.384-115.6-40.384-24.576 0-45.024 7.648-60.768 22.72-6.976 6-13.328 16.32-11.536 28.512 0.768 5.184 4.368 17.952 21.312 24.512 15.552 6 58.56 47.328 74.624 67.424-3.504 3.872-7.312 4.864-11.664 4.864-4.576 0-12.576-1.296-24.816-7.504l-2.16-0.976c-2.56-1.008-25.712-9.76-47.488-9.76-24.64 0-36.752 11.04-42.56 20.304-15.232 24.256 0.304 56.464 5.408 67.056 29.216 60.528 70.016 73.232 99.088 73.232 14.368 0 26.192-3.104 32.544-4.784l2.464-0.64c12.592-2.32 210.768-65.408 261.936-102.72 12.896-9.392 32.384-18.928 51.248-28.144 42.096-20.592 75.344-36.832 76.832-66.4 0.56-10.656-3.312-26.16-24.848-39.504z m-73.024 62.784c-20.72 10.128-42.144 20.608-58.448 32.48-41.952 30.608-224.768 90.272-242.256 94.288a85.648 85.648 0 0 0-6.112 1.44c-5.136 1.344-12.16 3.2-20.32 3.2-8.32 0-33.616 0-55.856-46.08-4.4-9.12-6.128-15.024-6.8-18.512h0.72c10.176 0 23.696 4.16 29.152 6.144 16.144 8.016 31.376 12.08 45.296 12.08 16.064 0 45.392-5.632 61.264-43.28 1.968-4.64 3.52-12.096-0.384-21.328-6.752-15.952-46.256-58.24-78.64-83.168 23.184-2.272 59.136 10 96.08 32.896 40.448 25.152 73.584 40.64 138.144 23.648a584.96 584.96 0 0 0 28.992-8.768c24.8-7.968 52.896-16.992 78.24-16.992 13.68 0 25.28 2.624 35.328 8.016-10.784 7.52-31.056 17.424-44.4 23.936z" p-id="12433"></path></svg>