<?xml version="1.0" encoding="utf-8"?>
<!-- Generator: Adobe Illustrator 21.0.0, SVG Export Plug-In . SVG Version: 6.00 Build 0)  -->
<svg version="1.1" id="Layer_1" xmlns="http://www.w3.org/2000/svg" xmlns:xlink="http://www.w3.org/1999/xlink" x="0px" y="0px"
	 viewBox="0 0 200 200" style="enable-background:new 0 0 200 200;" xml:space="preserve">
<style type="text/css">
	.st0{fill:#231F20;}
</style>
<g>
	<path class="st0" d="M109.5,108.3l72.6-0.1c3.9,0,7.3-2.6,8.2-6.4h-85.9C103.6,105.1,106.1,108.3,109.5,108.3z"/>
	<path class="st0" d="M190.8,94.9c-0.4-1.6-1.3-3.2-3.3-3.1c-2.3,0.2-4.7-0.5-5.2-1.8l-4.6-7.6L125.1,83c-2.1,0-4,1.2-4.9,3
		c-1.2,2.4-2.5,4.7-5.1,5.4c-2.1,0.6-3.7,0.5-4.3,0.5c-2.2,0-4.2,1.5-4.7,3.7l-0.6,2.8h9.9c2.8,0.3,5.6-0.6,8.4-2.7l6.4-6.7
		l39.6-0.1l3.8,6.5c0.8,2.3,3.8,3.3,9.1,3h8.4C191,98.4,191,95.7,190.8,94.9z"/>
	<path class="st0" d="M30,94.4l1.5-1.9h11.7c3.8,0,7-2.7,7.7-6.5H35.3l1.9-3.8H25.5l-3.8,6.5c-0.5,1-1.3,1.4-2.3,1.1H16l-0.8,6.1
		h9.1C26.8,95.9,28.7,95.4,30,94.4z"/>
	<path class="st0" d="M30.4,117.2h13.3l1.5-6.5H31.9l1.5-5.7h13.3l1.1-6.8H14.1L13,105h8l-1.5,5.7H11l-1.5,6.5h8.4l-2.7,11
		c-1.5,4.1,0.2,5.8,5.3,5.3h15.6c0.9-3-1.3-6.1-4.5-6.1h-2.4c-0.8,0-1-0.2-0.8-0.8L30.4,117.2z"/>
	<path class="st0" d="M69.4,94l-1.6,6.5h17.6l-3,13.7c0,0.8-0.4,1.1-1.1,1.1H71.2c0.4-1.9-0.7-3.8-2.5-4.3l-2.4-0.7l-1.6,7.9
		l-0.8,3.5h22.4c4.6,0.3,7.1-1.5,7.6-5.3L99.2,94H69.4z"/>
	<path class="st0" d="M85.2,127.4H59.3c-0.8,0-1.1-0.4-1.1-1.1l1.1-4.6l0,0l2.6-12l0,0l1.4-6.8h-0.1l0.4-1.8l0.1-0.6l0,0l1.6-6.5
		h-0.1l1.1-4.6h30.1c4.2,0,7.9-2.8,9-6.8H55.9l-11,46c-1.3,3.6,0.5,5.3,5.3,5.3h39.9C91,130.7,88.6,127.4,85.2,127.4z"/>
	<polygon class="st0" points="98.3,133.7 112.5,133.7 113.9,127.3 115.6,118.8 117,111.7 103.2,111.7 	"/>
	<path class="st0" d="M119.7,118.2h50.8l-1.9,7.6c0,1-1,1.5-3,1.5h-40.8c0.2-2.1-1.2-3.9-3.3-4.3l-1.9-0.3l-0.8,4.6l0,0l-0.8,4.8
		l-0.2,1.3l0,0l-0.1,0.4h51.8c7.9,0.3,12.3-1.9,13.3-6.5l3-15.6H121L119.7,118.2z"/>
</g>
</svg>
