<?xml version="1.0" encoding="utf-8"?>
<!-- Generator: Adobe Illustrator 21.0.0, SVG Export Plug-In . SVG Version: 6.00 Build 0)  -->
<svg version="1.1" id="Layer_1" xmlns="http://www.w3.org/2000/svg" xmlns:xlink="http://www.w3.org/1999/xlink" x="0px" y="0px"
	 viewBox="0 0 200 200" style="enable-background:new 0 0 200 200;" xml:space="preserve">
<style type="text/css">
	.st0{fill:#231F20;}
</style>
<g>
	<path class="st0" d="M136,78.9c-0.2,1.3-0.3,2.3-0.4,2.8c-0.2,1-0.5,2.9-1,5.7c-0.5,2.8-1,5-1.3,6.6h-15.9
		c0.8-4.4,1.9-9.4,3.3-15.2c-3,0-5,0.1-6.2,0.1c-1.5,0-3.8,0-6.9-0.1l-0.4,2.9c-0.2,1.4-0.5,2.9-0.8,4.4l-1,5.3l-2.4,11.9l-3.7,16.3
		c3.3,0,5.4-0.1,6.3-0.1l6.8,0.1l3.1-16.6h16c-1.2,6.3-2.4,11.8-3.6,16.6c3.6,0,5.9-0.1,6.9-0.1l6.4,0.1c1.1-7,2.1-13,3.1-18
		c1-5,2.6-12.6,4.9-22.9c-3.4,0-5.4,0.1-6.2,0.1L136,78.9z"/>
	<path class="st0" d="M18.9,88.8h19l-4.6,20.7c-0.1,1.2-0.5,1.7-1.3,1.7H20.9c0.7-2.8-0.4-5.7-2.3-6.5l-2.5-1l-2.5,12l-1.2,5.3h24
		c4.9,0.4,7.8-2.3,8.7-8.1l8-34h-32L18.9,88.8z"/>
	<path class="st0" d="M173,110.2c-3.1,0.1-5.2,0.1-6.2,0.1h-3.4l1.3-7.1c3.4-0.1,6.4-0.2,9.1-0.2c1.8,0,4.4,0,7.8,0.1
		c0.7-3.4,1.3-6.4,1.8-8.9l-16.8,0h-12.5c-0.9,4.9-1.6,8.9-2.3,12c-0.7,3.4-1.6,7.6-2.8,12.6l4.2,0l12.9,0c5.7,0,10.9,0,15.7,0.1
		c0.6-3.1,1.2-6,1.8-8.9c-2.1,0.1-3.6,0.2-4.5,0.2L173,110.2z"/>
	<path class="st0" d="M173.4,79c-6.5,0-12.1,0-16.7-0.1l-0.3,2.6c-0.2,1.2-0.5,3.1-1,5.9h14.2l18.1,0.3c0.1-0.7,0.2-1.4,0.3-2.1
		l0.6-3.2c0.3-1.5,0.4-2.3,0.5-2.5l0.2-1C184.7,79,179.4,79,173.4,79z"/>
	<path class="st0" d="M95.4,79c-1.8,0-4.1,0-7.2,0c-0.1,0-0.5,1.6-1.1,4.8c-0.7,3.3-1.4,6.9-2.3,10.9c-1,4.7-1.7,7.6-2.1,8.9
		c-0.4,1.3-0.8,2.3-1.2,3.1c-0.5,0.9-0.9,1.6-1.5,2.1c-0.4,0.5-0.9,0.9-1.4,1.3c-0.6,0.4-1.2,0.7-1.9,0.9c-0.9,0.3-1.8,0.4-2.8,0.4
		c-1.1,0-2.2-0.2-3.2-0.5c-1-0.4-1.7-0.9-2.2-1.6c-0.5-0.7-0.7-1.6-0.8-2.6c-0.1-1,0-2.3,0.3-3.8c0.1-0.8,0.4-2.3,0.8-4.4
		c0.4-2.1,0.9-4.4,1.5-6.8L73.3,79c-2.7,0-4.8,0.1-6.4,0.1c-1.3,0-3.5,0-6.6-0.1l-2.4,11.9c-0.5,2.4-0.9,4.3-1.2,5.6l-1.2,4.8
		c-0.4,1.8-0.7,3.2-0.9,4.2c-0.2,1-0.3,1.7-0.4,2.2c-0.2,1.4-0.3,2.8-0.1,4c0.1,1.1,0.4,2,0.9,2.8c0.4,0.8,1.1,1.6,2,2.3
		c1,0.8,2.3,1.5,3.7,2.1c1.5,0.6,3.1,1.1,5,1.4c2,0.3,4.2,0.5,6.4,0.5c2.5,0,5-0.2,7.6-0.6s4.8-1.1,6.9-2.1c2.1-1,3.7-2.1,4.9-3.4
		c1.2-1.3,2.2-2.7,2.9-4.5c0.7-1.7,1.4-4.7,2.2-8.8c0-0.3,0.1-0.6,0.2-1l4.8-21.3H95.4z"/>
</g>
</svg>
