<?xml version="1.0" standalone="no"?><!DOCTYPE svg PUBLIC "-//W3C//DTD SVG 1.1//EN" "http://www.w3.org/Graphics/SVG/1.1/DTD/svg11.dtd"><svg t="1497065891999" class="icon" style="" viewBox="0 0 1024 1024" version="1.1" xmlns="http://www.w3.org/2000/svg" p-id="9797" xmlns:xlink="http://www.w3.org/1999/xlink" width="200" height="200"><defs><style type="text/css"></style></defs><path d="M336.49664 568.71936a135.13216 135.13216 0 0 0-8.57088 47.25248c0 4.18816 0.256 8.33024 0.64 12.4416a51.01056 51.01056 0 0 0-2.29376 9.83552h-32.75776c2.09408-27.79648 18.28864-52.51584 42.9824-69.5296zM357.89824 520.76032a166.53824 166.53824 0 0 1 15.24736-36.75136c-90.55744 15.38048-159.22688 78.28992-162.72896 154.23488h32.73728c3.28704-54.23104 50.22208-99.96288 114.74432-117.48352zM692.58752 532.41344c0.7168-0.01536 1.408-0.0512 2.1248-0.0512 2.16064 0 4.30592 0.0768 6.44608 0.13824-15.2576-38.02112-58.14272-65.97632-109.44-68.52096 42.30144 12.7488 77.84448 37.13536 100.86912 68.43392zM584.14592 431.85152c85.45792 0 156.62592 47.15008 170.65472 108.91776a201.53344 201.53344 0 0 1 34.98496 13.6192c-5.69344-86.37952-95.744-155.264-205.63968-155.264-81.42848 0-151.9616 37.83168-185.34912 92.56448 23.09632-15.85152 50.67776-27.39712 80.90624-33.21344 29.06112-16.6912 65.24416-26.624 104.44288-26.624zM717.25568 585.0368c41.5488 5.4528 76.43648 25.63072 94.98624 53.21216h28.66176c-21.2224-43.37152-72.02816-75.0336-132.59776-79.2064a139.264 139.264 0 0 1 8.94976 25.99424zM726.01088 638.24384h43.72992c-12.06784-13.05088-29.16352-22.8608-49.00352-27.50464 0.06656 1.73568 0.15872 3.47648 0.15872 5.22752 0 6.8096-0.57344 13.49632-1.56672 20.08064 2.28864 0.65024 4.52096 1.3824 6.6816 2.19648zM356.44416 638.24384h27.77088a83.39456 83.39456 0 0 1-3.05152-22.27712c0-59.84256 64.26112-108.52352 143.24736-108.52352 78.98112 0 143.24736 48.68096 143.24736 108.52352 0 7.63904-1.05984 15.08352-3.05152 22.27712h27.77088c1.51552-7.2448 2.33984-14.68416 2.33984-22.27712 0-74.76224-76.40064-135.58272-170.30656-135.58272-93.90592 0-170.30656 60.8256-170.30656 135.58272 0 7.59296 0.82432 15.03232 2.33984 22.27712zM622.2592 638.24384c2.47808-7.0912 3.90144-14.54592 3.90144-22.27712 0-45.32224-45.6448-82.2016-101.74976-82.2016-56.09984 0-101.74464 36.87936-101.74464 82.2016 0 7.7312 1.41824 15.18592 3.89632 22.27712h29.58848c-4.10112-6.81984-6.42048-14.34112-6.42048-22.27712 0-30.40256 33.49504-55.1424 74.68032-55.1424 41.18016 0 74.68032 24.73472 74.68032 55.1424 0 7.936-2.31936 15.45728-6.41536 22.27712h29.58336zM903.0144 670.976H145.81248c-15.7184 0-23.61856 22.01088-12.55936 34.95936 38.92736 45.57312 87.95648 77.75744 141.66528 92.98432l65.50016 18.58048c9.26208 2.63168 17.36704 9.1136 22.77376 18.2272 5.9136 9.9584 15.66208 15.8976 26.07104 15.8976h270.28992c10.41408 0 20.16256-5.9392 26.07104-15.8976 5.41184-9.10848 13.5168-15.59552 22.77376-18.2272l65.50528-18.58048c53.70368-15.232 102.73792-47.4112 141.66528-92.98432 11.0592-12.94848 3.15392-34.95936-12.55424-34.95936zM515.6864 299.3152c1.43872 3.6608 2.304 7.2192 4.29056 10.2144 1.74592 3.06688 3.46624 5.85728 5.6064 8.1408 1.93024 2.40128 4.02944 4.352 6.0928 6.02624a47.07328 47.07328 0 0 0 11.3664 6.9376c3.31776 1.41312 6.10304 2.0224 7.92576 2.44736 1.89952 0.36352 2.88768 0.384 2.88768 0.384s-0.57344-0.88576-1.51552-2.40128l-1.64864-2.85184a339.44576 339.44576 0 0 0-1.93536-3.87072c-1.29536-2.92352-2.77504-6.31296-3.76832-10.17856-0.46592-1.9456-1.08032-3.84-1.2288-5.9648-0.0768-1.0496-0.35328-2.01216-0.38912-3.05664l-0.01536-3.16928c-0.22016-2.03264 0.39424-4.2496 0.512-6.29248 0.39936-2.11456 1.03424-4.25984 1.49504-6.32832 1.07008-2.176 1.51552-4.29056 2.57536-6.46656 1.3568-2.2016 2.0992-4.43904 3.456-6.68672 1.57184-2.24768 2.8928-4.56704 4.25472-6.912 1.8176-2.30912 3.59936-4.6336 5.23776-7.05024 1.56672-2.42688 3.96288-4.72064 5.80608-7.168l2.91328-3.65568 3.92704-5.07904c2.16576-2.92864 4.33152-5.7856 6.43072-8.81152 2.36544-3.94752 4.5824-7.98208 6.69184-11.99104 2.26816-3.97824 3.32288-8.18176 4.82304-12.22144 1.5616-3.92704 2.30912-8.36096 3.01056-12.57472 0.8704-4.13696 0.9984-8.50944 0.93696-12.69248 0.16896-4.13696-0.57344-8.29952-1.23392-12.19072l-0.54784-2.8928-0.85504-2.79552c-0.5888-1.83808-1.14688-3.6352-1.792-5.35552-1.28-3.44064-3.10784-6.50752-4.6592-9.4208a103.34208 103.34208 0 0 0-5.50912-7.6288c-2.06848-2.14528-3.88608-4.1984-5.82144-5.88288a59.44832 59.44832 0 0 0-10.73664-7.43936c-3.13344-1.6896-5.8368-2.58048-7.58272-3.2-1.81248-0.58368-2.82112-0.74752-2.82112-0.74752l1.2032 2.58048c0.78336 1.62816 1.7152 4.15744 2.87744 7.13728 1.10592 3.03104 2.2528 6.64576 3.26656 10.6496 0.38912 1.9712 0.80896 4.0704 1.25952 6.28224 0.16384 2.23744 0.55808 4.40832 0.67584 6.6816 0.10752 4.5824-0.01536 9.20576-0.9728 13.83424-0.62464 2.3296-0.68096 4.59264-1.7408 6.9376-0.896 2.29888-1.23904 4.62848-2.57536 6.96832-1.792 4.60288-4.77184 9.59488-7.50592 14.06976-1.5104 2.14528-2.94912 4.30592-4.2496 6.5792l-6.62016 8.56576-6.29248 8.56576-3.56864 5.01248c-1.16224 1.65888-2.34496 3.30752-3.30752 5.23776-2.04288 3.6864-3.94752 7.41376-5.76512 11.0848a177.536 177.536 0 0 0-4.28032 11.95008c-1.13152 4.04992-1.85344 8.38656-2.47808 12.42624-0.41984 4.1728-0.38912 8.49408-0.30208 12.4672 0.62464 4.1472 1.06496 8.11008 2.19648 11.79648zM591.0528 323.41504c-0.1792 3.15904-0.08192 6.44608 0.15872 9.42592 0.6144 3.13856 1.08544 6.12352 2.10432 8.8832 1.21344 2.73408 2.04288 5.36576 3.67616 7.552 1.47456 2.23744 2.8928 4.24448 4.6336 5.82656 1.60256 1.67936 3.26656 3.01056 4.92544 4.11136a31.29856 31.29856 0 0 0 8.91392 4.17792c2.58048 0.73728 4.72064 0.85504 6.08256 0.9728 1.44384 0.05632 2.18112-0.06656 2.18112-0.06656s-0.32256-0.74752-0.7936-1.95072c-0.53248-1.19808-1.09056-3.11296-1.73568-5.248-0.55808-2.21696-1.16736-4.72576-1.34144-7.424-0.06144-1.36704-0.24576-2.64192-0.04608-4.02944 0.0256-1.32096 0.22016-2.64192 0.55296-3.92192 0.13312-1.22368 0.78336-2.51392 1.11104-3.64544 0.52736-1.1008 1.06496-2.24256 1.61792-3.41504 0.90112-1.18272 1.28512-2.27328 2.09408-3.42016 1.024-1.2032 1.60768-2.35008 2.54464-3.60448 1.05984-1.27488 1.98144-2.56 2.89792-3.87072 1.19296-1.36192 2.3552-2.72384 3.42016-4.15744 0.98304-1.42336 2.60096-2.85696 3.76832-4.37248 0.61952-0.74752 1.26464-1.4848 1.85856-2.26304l2.8672-3.69152c1.46944-1.9968 2.93376-3.91168 4.33664-6.016 1.77664-2.94912 3.4048-5.9904 4.94592-9.0112 2.74944-6.10816 4.61824-12.00128 5.39136-18.5344 0.55808-3.08736 0.50688-6.40512 0.34304-9.54368-0.04096-3.09248-0.6656-6.21056-1.3312-9.1136-0.54784-2.90304-1.81248-5.62688-2.82112-8.15104-1.13152-2.5088-2.60608-4.73088-3.9168-6.80448a69.44768 69.44768 0 0 0-4.52096-5.32992c-1.6896-1.44896-3.13344-2.83648-4.6848-3.92704a38.43072 38.43072 0 0 0-8.4736-4.5312c-5.00224-1.78688-8.09472-1.75104-8.09472-1.75104l0.56832 2.048c0.384 1.27488 0.73216 3.24608 1.18272 5.47328 0.41984 2.27328 0.7936 4.92544 1.024 7.74144 0.0256 1.36704 0.07168 2.80064 0.11264 4.3264-0.14336 1.50016-0.12288 2.92864-0.32256 4.38784-0.44032 2.92864-1.03936 5.6832-2.0736 8.32-0.64 1.32608-0.79872 2.56512-1.65888 3.86048-0.73728 1.26976-1.11104 2.49344-2.03776 3.80928-1.3056 2.45248-3.3536 5.36576-5.01248 7.82336a25.25184 25.25184 0 0 0-2.48832 3.58912c-1.51552 1.83808-3.0464 3.84-4.52608 5.77536l-4.17792 5.78048c-1.68448 2.47808-3.40992 4.66944-4.82816 7.44448a177.37728 177.37728 0 0 0-4.05504 8.15616 139.87328 139.87328 0 0 0-2.8928 8.92928c-0.74752 3.05152-1.152 6.35904-1.47968 9.37984zM420.42368 341.72416c1.21344 2.73408 2.03776 5.36576 3.67104 7.552 1.47456 2.23744 2.8928 4.24448 4.63872 5.82656 1.60256 1.67936 3.26656 3.01056 4.92032 4.11136a31.29856 31.29856 0 0 0 8.91392 4.17792c2.57536 0.73728 4.71552 0.85504 6.0928 0.9728 1.44384 0.05632 2.17088-0.06656 2.17088-0.06656s-0.32256-0.74752-0.79872-1.95072c-0.53248-1.19808-1.08544-3.11296-1.73056-5.248-0.5632-2.21696-1.16736-4.72576-1.34144-7.424-0.0512-1.36704-0.23552-2.64192-0.04608-4.02944 0.0256-1.32096 0.22016-2.64192 0.55296-3.92192 0.13824-1.22368 0.78848-2.51392 1.12128-3.64544l1.60768-3.41504c0.90112-1.18272 1.29024-2.27328 2.10432-3.42016 1.01888-1.2032 1.60768-2.35008 2.53952-3.60448 1.05984-1.27488 1.98656-2.56 2.90304-3.87072 1.19808-1.36192 2.3552-2.72384 3.42528-4.15744 0.98304-1.42336 2.59584-2.85696 3.7632-4.37248 0.61952-0.74752 1.27488-1.4848 1.85856-2.26304l2.87232-3.69152c1.46432-1.9968 2.93376-3.91168 4.3264-6.016 1.78176-2.94912 3.41504-5.9904 4.94592-9.0112 2.74944-6.10816 4.62848-12.00128 5.38624-18.5344 0.56832-3.08736 0.512-6.40512 0.34304-9.54368-0.03072-3.09248-0.6656-6.21056-1.3312-9.1136-0.54272-2.90304-1.80736-5.62688-2.816-8.15104-1.13152-2.5088-2.60096-4.73088-3.92192-6.80448a66.13504 66.13504 0 0 0-4.51584-5.32992c-1.67936-1.44896-3.1232-2.83648-4.6848-3.92704a38.31808 38.31808 0 0 0-8.4736-4.5312c-5.00224-1.78688-8.09472-1.75104-8.09472-1.75104l0.56832 2.048c0.38912 1.27488 0.73728 3.24608 1.1776 5.47328 0.43008 2.27328 0.79872 4.92544 1.02912 7.74144l0.11264 4.3264c-0.14848 1.50016-0.128 2.92864-0.32256 4.38784-0.44032 2.92864-1.03424 5.6832-2.06848 8.32-0.64 1.32608-0.79872 2.56512-1.66912 3.86048-0.73216 1.26976-1.10592 2.49344-2.03776 3.80928-1.30048 2.45248-3.3536 5.36576-5.01248 7.82336a26.12224 26.12224 0 0 0-2.48832 3.58912c-1.51552 1.83808-3.0464 3.84-4.52608 5.77536l-4.17792 5.78048c-1.6896 2.47808-3.41504 4.66944-4.83328 7.44448a172.032 172.032 0 0 0-4.0448 8.15616 143.3856 143.3856 0 0 0-2.90304 8.92928c-0.75776 3.03616-1.17248 6.34368-1.49504 9.3696-0.1792 3.15904-0.08704 6.44608 0.15872 9.42592 0.63488 3.1488 1.10592 6.13376 2.12992 8.89344z" p-id="9798"></path></svg>