<?xml version="1.0" standalone="no"?><!DOCTYPE svg PUBLIC "-//W3C//DTD SVG 1.1//EN" "http://www.w3.org/Graphics/SVG/1.1/DTD/svg11.dtd"><svg t="1497065730031" class="icon" style="" viewBox="0 0 1024 1024" version="1.1" xmlns="http://www.w3.org/2000/svg" p-id="5419" xmlns:xlink="http://www.w3.org/1999/xlink" width="200" height="200"><defs><style type="text/css"></style></defs><path d="M707.481671 966.891328 295.152718 966.891328c-34.765805 0-61.449537-10.492982-80.852446-31.528064-26.670429-29.109991-26.670429-67.103304-25.869181-75.993788L188.431092 336.27479c0-36.371372 20.212344-53.368488 29.107945-59.010999l179.483814-143.111418L397.022851 50.870598l14.557554-8.071839c3.234671-1.6158 36.370349-19.407002 89.74293-17.787108 53.367465-0.819668 86.508259 16.177448 89.743954 17.787108l14.552437 8.071839 0 83.282798 179.482791 143.111418c8.076956 5.666046 29.109991 23.438828 29.109991 59.010999l0 523.095709c0.819668 8.882298 0.819668 46.895053-25.864064 75.993788-19.409049 21.023826-46.086641 31.528064-80.857563 31.528064L707.481671 966.893374zM245.020948 863.400279c0 0-0.819668 21.026896 11.320836 34.766828 8.076956 8.072863 21.022803 12.93152 38.797631 12.93152l412.333046 0c17.783015 0 30.724769-4.044106 38.796608-12.93152 12.117992-12.932544 11.32186-34.766828 11.32186-34.766828L757.590929 337.070922c0-7.284917-2.440585-10.497075-3.235694-11.320836l-4.040013-1.610684 0-1.611707L567.592644 177.00025 434.191378 177.00025 247.43595 325.763388c-0.818645 1.610684-2.434445 4.855588-2.434445 11.317767l0 526.334473L245.020948 863.400279zM453.617823 98.564853l95.399767 0L549.01759 88.071871c-10.492982-3.236718-26.670429-5.666046-46.896076-5.666046l-1.610684 0c-20.217461-0.819668-36.377512 2.439562-46.902216 5.666046l0 10.492982L453.617823 98.564853zM691.308317 716.247824 574.877561 716.247824c-24.248264 0-44.461631-19.401886-44.461631-43.660382L530.41593 415.483806c0-24.25338 20.213367-43.661406 44.461631-43.661406L691.308317 371.8224c24.249287 0 44.462654 19.408025 44.462654 43.661406l0 257.103636C735.771995 696.841845 715.558627 716.247824 691.308317 716.247824L691.308317 716.247824zM587.823408 659.665131l91.351568 0L679.174975 428.430676l-91.351568 0L587.823408 659.665131 587.823408 659.665131zM587.823408 659.665131" p-id="5420"></path></svg>