<?xml version="1.0" standalone="no"?><!DOCTYPE svg PUBLIC "-//W3C//DTD SVG 1.1//EN" "http://www.w3.org/Graphics/SVG/1.1/DTD/svg11.dtd"><svg t="1497066055031" class="icon" style="" viewBox="0 0 1024 1024" version="1.1" xmlns="http://www.w3.org/2000/svg" p-id="14409" xmlns:xlink="http://www.w3.org/1999/xlink" width="200" height="200"><defs><style type="text/css"></style></defs><path d="M887.499651 434.097746c0-23.445992-18.99461-42.419112-42.421158-42.419112-23.425525 0-42.418089 18.97312-42.418089 42.419112 0 0.223081 0.013303 0.442068 0.017396 0.664126l-0.017396 0-43.949978 466.081181-72.299653 0 31.036877-461.198987c0.236384-1.816369 0.372483-3.665483 0.372483-5.54632 0-23.445992-18.995633-42.419112-42.420135-42.419112-23.426549 0-42.419112 18.97312-42.419112 42.419112l-18.84623 466.745307-72.276117 0 6.282077-466.745307c0-23.445992-18.993586-42.419112-42.420135-42.419112-23.426549 0-42.420135 18.97312-42.420135 42.419112l6.282077 466.745307-72.276117 0-18.84623-466.745307c0-23.445992-18.993586-42.419112-42.420135-42.419112s-42.420135 18.97312-42.420135 42.419112c0 1.880837 0.135076 3.729951 0.373507 5.54632l31.036877 461.197964-72.294536 0-43.955094-466.745307c0-23.445992-18.993586-42.419112-42.420135-42.419112s-42.420135 18.97312-42.420135 42.419112c0 3.486404 0.429789 6.871501 1.224898 10.114358l60.83146 502.362502c0.868787 9.82067 9.486048 17.772782 19.241226 17.772782l600.964194 0c9.755178 0 18.371416-7.952112 19.241226-17.772782l60.83146-502.362502C887.069863 440.969247 887.499651 437.583127 887.499651 434.097746z" p-id="14410"></path><path d="M251.200694 391.678634c-23.427572 0-42.421158 18.97312-42.421158 42.419112l21.210068 0c0-11.722996 9.486048-21.209044 21.211091-21.209044 11.722996 0 21.210068 9.486048 21.210068 21.209044l21.210068 0C293.619806 410.651754 274.627243 391.678634 251.200694 391.678634zM590.558705 391.678634c-23.426549 0-42.419112 18.97312-42.419112 42.419112l21.210068 0c0-11.722996 9.487072-21.209044 21.210068-21.209044s21.211091 9.486048 21.211091 21.209044l21.211091 0C632.979864 410.651754 613.985254 391.678634 590.558705 391.678634zM760.240269 391.678634c-23.427572 0-42.420135 18.97312-42.420135 42.419112l21.210068 0c0-11.722996 9.487072-21.209044 21.211091-21.209044 11.722996 0 21.210068 9.486048 21.210068 21.209044l21.211091 0C802.660404 410.651754 783.664771 391.678634 760.240269 391.678634zM420.879188 391.678634c-23.426549 0-42.419112 18.97312-42.419112 42.419112l21.210068 0c0-11.722996 9.486048-21.209044 21.209044-21.209044 11.725042 0 21.211091 9.486048 21.211091 21.209044l21.210068 0C463.300346 410.651754 444.30676 391.678634 420.879188 391.678634z" p-id="14411"></path><path d="M845.078493 264.418228c-6.598278 0-12.961196 1.00284-18.945491 2.865257 11.69332-11.539824 18.945491-27.565822 18.945491-45.284369 0-35.171034-28.479635-63.630203-63.629179-63.630203-17.724687 0-33.747615 7.242961-45.284369 18.928095 1.860371-5.980201 2.864234-12.33698 2.864234-18.928095 0-35.170011-28.481681-63.630203-63.630203-63.630203-35.150568 0-63.630203 28.460192-63.630203 63.630203 0-58.57507-47.474244-106.049315-106.050338-106.049315S399.670144 99.79282 399.670144 158.367891c0-35.170011-28.479635-63.630203-63.630203-63.630203s-63.630203 28.460192-63.630203 63.630203c0 6.590092 1.00284 12.947893 2.863211 18.928095-11.535731-11.685133-27.558659-18.928095-45.283346-18.928095-35.150568 0-63.630203 28.460192-63.630203 63.630203 0 17.718547 7.252171 33.745569 18.944468 45.284369-5.984295-1.861394-12.346189-2.865257-18.944468-2.865257-35.139312 0-63.630203 28.460192-63.630203 63.630203 0 35.129078 28.489868 63.630203 63.630203 63.630203 7.439436 0 14.57495-1.289366 21.210068-3.635807l0 24.844851 615.089913 0 0-37.426401c11.256368 10.078543 26.116821 16.216333 42.418089 16.216333 35.150568 0 63.631226-28.502148 63.631226-63.630203C908.709719 292.87842 880.229061 264.418228 845.078493 264.418228z" p-id="14412"></path><path d="M887.499651 349.257475 123.940288 349.257475c-23.426549 0-42.420135 18.974144-42.420135 42.421158l0 42.419112c0 23.407106 18.993586 42.420135 42.420135 42.420135l763.559363 0c23.426549 0 42.419112-19.014052 42.419112-42.420135l0-42.419112C929.918763 368.231619 910.9262 349.257475 887.499651 349.257475z" p-id="14413"></path></svg>