<?xml version="1.0" standalone="no"?><!DOCTYPE svg PUBLIC "-//W3C//DTD SVG 1.1//EN" "http://www.w3.org/Graphics/SVG/1.1/DTD/svg11.dtd"><svg t="1497065762561" class="icon" style="" viewBox="0 0 1024 1024" version="1.1" xmlns="http://www.w3.org/2000/svg" p-id="6079" xmlns:xlink="http://www.w3.org/1999/xlink" width="200" height="200"><defs><style type="text/css"></style></defs><path d="M524.132 192.072c0 21.781 17.658 39.437 39.437 39.437s39.437-17.658 39.437-39.437c0-21.781-17.658-39.437-39.437-39.437-21.781 0-39.437 17.658-39.437 39.437z m85.427 85.636c0 21.78 17.658 39.436 39.436 39.436 21.78 0 39.436-17.658 39.436-39.436 0-21.78-17.658-39.436-39.436-39.436-21.78 0-39.436 17.658-39.436 39.436z m339.943 99.329c-20.789-29.638-45.451-39.671-78.277-42.402-2.553-24.95-15.139-69.473-69.362-102.312-51.582-31.226-85.204-67.404-144.583-136.947-33.943-39.732-79.045-62.241-126.994-63.367-49.669-1.576-98.839 21.033-137.783 62.517l-1.19 1.269c-69.639 74.171-93.097 99.176-148.829 134.18-55.158 34.663-65.191 80.226-65.96 105.931-40.825 1.666-70.668 10.17-96.035 38.976-24.68 28.009-44.154 80.476-33.638 126.607 6.946 30.486 25.613 52.948 53.979 64.977 7.879 3.333 16.007 5.799 24.482 7.487 2.886 27.293 4.445 52.849 4.445 92.655 0 94.915-10.258 143.347-17.735 178.687-6.498 30.68-11.191 52.854-3.649 83.098 16.321 65.46 77.002 62.017 197.999 55.072 55.795-3.182 125.226-7.156 214.656-7.156 113.599 0 189.798 6.913 240.222 11.496 25.598 2.316 46.872 4.26 64.928 4.26 40.119 0 64.446-9.535 85.22-45.408 20.068-34.651 13.974-69.864 5.563-118.599-6.753-39.041-15.999-92.519-15.999-168.524 0-34.432 2.01-58.415 4.611-83.139 18.234-5.283 33.073-15.526 45.396-31.377 35.468-45.57 34.843-116.221-1.465-167.979zM268.757 271.815c61.115-38.412 87.646-66.664 158.573-142.221l1.19-1.269c29.216-31.112 65.731-47.786 100.608-46.935 33.719 0.788 65.893 17.155 90.59 46.082 62.902 73.641 98.855 112.169 156.563 147.107 32.802 19.863 42.407 44.736 45.147 59.732-15.035 0.605-31.903 1.555-51.545 2.703-58.542 3.424-138.699 8.12-255.707 8.12-103.404 0-179.717-3.778-235.431-6.528-20.009-0.983-37.34-1.814-53.004-2.367 0.59-14.111 6.823-41.684 43.018-64.424z m599.898 650.096c-13.54 23.348-19.279 24.264-102.939 16.707-51.308-4.662-128.858-11.705-244.693-11.705-90.846 0-161.065 4.021-217.486 7.235-114.05 6.545-141.401 5.693-147.255-17.702-4.775-19.197-1.817-33.14 4.053-60.907 7.493-35.374 18.813-88.836 18.813-188.931 0-38.778-1.422-64.743-4.053-91.237 18.93-1.946 39.542-6.006 63.914-10.88 60.328-12.093 142.943-28.638 277.848-28.638 117.394 0 201.714 17.735 263.279 30.68 29.381 6.178 53.842 11.231 75.434 13.201-2.262 22.876-4.011 47.157-4.011 79.8 0 80.251 9.664 136.143 16.707 176.95 7.959 45.955 11.014 67.049 0.386 85.428zM911.99 514.69c-9.421 12.107-19.939 16.61-38.799 16.61-20.565 0-48.075-5.788-82.887-13.105-63.689-13.394-150.903-31.741-273.442-31.741-139.794 0-225.205 17.109-287.559 29.587-31.226 6.254-55.908 11.206-75.846 11.206h-0.014c-12.639 0-23.233-1.993-33.348-6.271-13.522-5.725-21.724-15.692-25.083-30.454-6.415-28.17 6.707-65.009 22.541-82.984 13.748-15.614 28.123-22.573 76.97-22.573 21.498 0 48.093 1.318 81.778 2.991 56.229 2.765 133.248 6.577 237.874 6.577 118.455 0 199.445-4.744 258.585-8.199 31.355-1.832 56.118-3.279 75.204-3.279 41.115 0 50.183 6.801 61.101 22.349 23.764 33.894 25.033 80.877 2.926 109.289z" p-id="6080"></path></svg>