<?xml version="1.0" standalone="no"?><!DOCTYPE svg PUBLIC "-//W3C//DTD SVG 1.1//EN" "http://www.w3.org/Graphics/SVG/1.1/DTD/svg11.dtd"><svg t="1497065936821" class="icon" style="" viewBox="0 0 1024 1024" version="1.1" xmlns="http://www.w3.org/2000/svg" p-id="10471" xmlns:xlink="http://www.w3.org/1999/xlink" width="200" height="200"><defs><style type="text/css"></style></defs><path d="M444.061678 728.875422 244.567111 728.875422l0 66.690912 198.715831 0 0-1.564635c0-3.447519 0.254803-6.79373 0.778736-10.103102L444.061678 728.875422zM345.419054 396.792095c-50.615794 0-92.228541 43.358507-99.374288 99.468432l196.574051 0C435.623495 440.150602 394.916375 396.792095 345.419054 396.792095zM385.065006 130.724297l-83.148745 0c-18.122753 0-32.821523-14.876826-32.821523-33.238009 0-18.361183 14.69877-33.234939 32.821523-33.234939l83.148745 0c18.125823 0 32.815383 14.873756 32.815383 33.234939C417.879366 115.847471 403.190829 130.724297 385.065006 130.724297zM509.769192 828.565912c0 18.361183-15.45397 33.234939-35.94363 33.234939L215.172641 861.800851c-20.48966 0-37.10099-14.873756-37.10099-33.234939l0-34.782178 0-31.673373L178.071651 512.87902c0-74.632791 41.065278-138.571009 99.746772-166.951383L277.818423 163.941839 410.810367 163.941839 410.810367 344.836793c59.087747 27.907607 99.730399 92.596931 99.730399 168.042227l0 280.903691-0.771573 0L509.769192 828.565912zM809.795407 496.260527 577.053622 496.260527l0 265.849834 232.742808 0L809.79643 496.260527zM842.002946 793.783735l0 34.782178c0 18.361183-13.846356 33.234939-32.207539 33.234939L577.053622 861.800851c-18.361183 0-33.248242-14.873756-33.248242-33.234939l0-34.782178 0-31.673373L543.80538 512.87902c0-79.365582 41.74987-146.253992 99.746772-171.489746L643.552152 128.149659c-10.657734-4.991688-18.169825-16.817014-18.169825-30.66337 0-18.361183 13.167904-33.234939 29.414937-33.234939l22.00006 0 33.251312 0 19.263739 0c16.246009 0 29.410843 14.873756 29.410843 33.234939 0 12.520151-6.374174 23.017226-15.427364 28.683273l0 215.005842c58.013275 25.054629 99.397824 92.080162 99.397824 171.70464l0 280.903691L842.002946 793.783735z" p-id="10472"></path></svg>