<?xml version="1.0" encoding="utf-8"?>
<!-- Generator: Adobe Illustrator 21.0.0, SVG Export Plug-In . SVG Version: 6.00 Build 0)  -->
<svg version="1.1" id="Layer_1" xmlns="http://www.w3.org/2000/svg" xmlns:xlink="http://www.w3.org/1999/xlink" x="0px" y="0px"
	 viewBox="0 0 200 200" style="enable-background:new 0 0 200 200;" xml:space="preserve">
<style type="text/css">
	.st0{fill:#3C3C3C;}
</style>
<path class="st0" d="M90.5,89.7H49.1c-3.7,0-6.4,2.9-6.4,6.4v51.8c0,3.7,2.9,6.4,6.4,6.4h41.4c3.7,0,6.4-2.9,6.4-6.4V96.1
	C97.1,92.5,94.2,89.7,90.5,89.7z M89.3,146.6H50.4V97.4h38.9V146.6L89.3,146.6z"/>
<path class="st0" d="M86.7,64.3V40.4H73.8V30.1h23.3v-7.8H47.8v7.8h18.1v10.3H53v23.9c-13.2,2.3-23.3,14-23.3,28v85.5h62.2v-7.8
	H37.5V92.2c0-11.4,9.3-20.7,20.7-20.7h23.3c11.4,0,20.7,9.3,20.7,20.7v11.7c2.3-1.8,4.9-3.3,7.8-4.7v-7
	C110,78.2,99.9,66.6,86.7,64.3L86.7,64.3z M78.9,63.7H60.8V48.2h18.1V63.7z"/>
<path class="st0" d="M146.3,98.4V76.7h-33.6v21.8c-11.9,3.3-20.7,14.2-20.7,27.4v51.8H167v-51.8C167,113,158.1,101.8,146.3,98.4
	L146.3,98.4z M120.4,97.4v-13h18.1v13H120.4z M159.2,169.9H99.6v-44.1c0-11.4,9.3-20.7,20.7-20.7h18.1c11.4,0,20.7,9.3,20.7,20.7
	V169.9L159.2,169.9z"/>
<path class="st0" d="M129.4,115.5c-12.2,0-22,9.9-22,22s9.9,22,22,22s22-9.9,22-22S141.6,115.5,129.4,115.5z M129.4,151.8
	c-7.8,0-14.2-6.4-14.2-14.2s6.4-14.2,14.2-14.2s14.2,6.4,14.2,14.2C143.7,145.3,137.2,151.8,129.4,151.8L129.4,151.8z"/>
</svg>
